<svg version="1.2" xmlns="http://www.w3.org/2000/svg" viewBox="0 0 54 59" width="54" height="59">
	<title>easy-svg</title>
	<style>
		.s0 { fill: #000000 } 
		.s1 { mix-blend-mode: difference;fill: #f95428 } 
		.s2 { fill: none;stroke: #000000;stroke-width: 3 } 
	</style>
	<g id="Designs">
		<g id="you">
			<path id="Oval-Copy-21" class="s0" d="m27 54c14.9 0 27-12.1 27-27 0-14.9-12.1-27-27-27-14.9 0-27 12.1-27 27 0 14.9 12.1 27 27 27z"/>
			<path id="Oval-Copy-40" class="s0" d="m27 59c14.9 0 27-12.1 27-27 0-14.9-12.1-27-27-27-14.9 0-27 12.1-27 27 0 14.9 12.1 27 27 27z"/>
			<path id="Oval-Copy-11" class="s1" d="m27 51c13.3 0 24-10.7 24-24 0-13.3-10.7-24-24-24-13.3 0-24 10.7-24 24 0 13.3 10.7 24 24 24z"/>
			<g id="Group-22">
				<path id="Oval-Copy-11" fill-rule="evenodd" class="s2" d="m14.3 39c0.6-6.6 6.4-11.5 13-11 6.6 0.5 11.5 6.3 11 13"/>
				<path id="Oval-Copy-11 copy" fill-rule="evenodd" class="s2" d="m15.3 19.3c-1.3-2.5-0.1-5.6 2.4-6.9 2.6-1.2 5.7-0.1 6.9 2.5"/>
				<path id="Oval-Copy-11 copy 2" fill-rule="evenodd" class="s2" d="m29.6 15.4c0.7-2.7 3.5-4.5 6.2-3.8 2.8 0.7 4.5 3.4 3.9 6.2"/>
				<g id="Group-7">
					<path id="Path" fill-rule="evenodd" class="s2" d="m31.5 17v6"/>
					<path id="Path-Copy" fill-rule="evenodd" class="s2" d="m21.5 17v6"/>
				</g>
			</g>
		</g>
	</g>
</svg>